<?xml version="1.0" standalone="no"?>
<!DOCTYPE svg PUBLIC "-//W3C//DTD SVG 20010904//EN"
 "http://www.w3.org/TR/2001/REC-SVG-20010904/DTD/svg10.dtd">
<svg version="1.0" xmlns="http://www.w3.org/2000/svg"
 width="100.000000pt" height="100.000000pt" viewBox="0 0 458.000000 228.000000"
 preserveAspectRatio="xMidYMid meet">

<g transform="translate(0.000000,228.000000) scale(0.100000,-0.100000)"
fill="#FAD619" stroke="none">
<path d="M3562 2268 c-12 -16 -201 -1078 -194 -1095 6 -18 208 -18 219 -1 11
18 201 1080 195 1096 -3 8 -34 12 -107 12 -70 0 -106 -4 -113 -12z"/>
<path d="M455 2251 c-151 -19 -228 -73 -280 -197 -19 -45 -168 -872 -159 -885
9 -14 220 -11 231 4 6 6 27 106 47 221 20 114 39 212 42 217 3 5 95 9 204 9
181 0 199 2 204 18 12 42 27 145 22 158 -4 11 -43 14 -202 14 l-197 0 7 40
c16 99 30 145 52 167 22 22 28 23 197 23 126 0 178 4 191 13 23 17 53 166 35
177 -28 18 -304 32 -394 21z"/>
<path d="M1233 2005 c-17 -7 -36 -22 -42 -33 -10 -18 -13 -19 -54 -5 -39 13
-49 13 -80 -1 -24 -10 -38 -23 -43 -40 -5 -22 -12 -26 -46 -26 -45 0 -88 -35
-88 -72 0 -17 -8 -27 -28 -34 -57 -22 -78 -119 -36 -165 15 -17 14 -21 -10
-49 -14 -18 -26 -40 -26 -51 0 -24 27 -79 39 -79 5 0 6 -19 4 -42 -4 -34 0
-49 17 -70 12 -16 28 -28 36 -28 17 0 17 -1 -1 -36 -20 -39 -19 -56 5 -87 31
-40 81 -52 150 -37 55 12 60 11 86 -9 84 -66 253 -65 347 1 23 17 33 18 59 9
51 -18 87 -13 114 15 21 20 25 33 22 65 -3 37 -2 39 24 39 42 0 68 32 68 83 0
31 6 49 20 62 24 22 27 81 5 112 -8 12 -12 28 -9 37 9 23 -13 80 -40 105 -21
20 -22 26 -14 55 15 46 -6 86 -57 110 -27 12 -46 30 -57 55 -29 61 -105 89
-160 60 -17 -9 -25 -7 -46 16 -26 29 -79 55 -109 55 -10 -1 -32 -7 -50 -15z
m113 -391 c23 -9 51 -13 62 -10 16 6 21 1 27 -23 9 -44 58 -81 105 -81 21 0
41 -4 44 -9 3 -4 17 -6 30 -4 56 11 39 -82 -19 -109 -16 -7 -30 -27 -40 -59
-21 -62 -83 -131 -147 -163 -70 -35 -161 -36 -233 -2 -62 29 -129 102 -152
168 -10 26 -23 48 -29 48 -21 0 -64 49 -64 73 0 28 16 37 63 37 50 0 94 33
108 80 11 35 16 40 41 40 36 0 75 20 107 54 l25 27 15 -26 c9 -14 34 -32 57
-41z"/>
<path d="M1108 1413 c-23 -26 -33 -83 -16 -83 8 0 18 15 23 33 6 17 17 32 25
32 8 0 19 -15 25 -32 12 -41 40 -46 30 -5 -16 66 -55 91 -87 55z"/>
<path d="M1387 1413 c-18 -21 -26 -74 -12 -80 6 -2 15 11 20 29 13 42 37 42
50 1 12 -41 40 -46 30 -5 -16 66 -55 91 -88 55z"/>
<path d="M1240 1350 c0 -6 11 -15 25 -22 19 -8 28 -8 40 2 22 18 18 32 -5 18
-16 -10 -24 -10 -40 0 -12 7 -20 8 -20 2z"/>
<path d="M2920 1999 c-130 -17 -252 -106 -307 -225 -31 -69 -65 -228 -67 -319
-2 -104 18 -160 78 -220 67 -67 124 -85 260 -85 102 0 271 24 292 41 6 5 16
35 23 66 20 101 38 92 -185 90 l-196 -2 -24 29 c-21 23 -24 37 -22 80 l3 51
248 3 248 2 10 28 c6 15 13 72 16 128 5 78 2 112 -11 151 -20 60 -74 127 -125
152 -33 18 -140 43 -165 40 -6 -1 -40 -5 -76 -10z m120 -194 c34 -18 54 -70
44 -119 l-6 -36 -139 0 c-77 0 -139 2 -139 4 0 17 28 78 48 105 42 57 130 78
192 46z"/>
<path d="M4150 2000 c-156 -24 -267 -112 -315 -248 -31 -91 -57 -263 -53 -352
7 -127 59 -209 154 -240 79 -26 199 -3 287 54 l27 19 -2 -34 -3 -34 97 -3 c85
-2 97 -1 102 15 3 10 35 186 71 392 46 264 62 378 55 387 -25 29 -316 60 -420
44z m168 -195 c6 -5 -68 -409 -76 -417 -14 -14 -120 -48 -150 -48 -16 0 -41 9
-56 21 -32 25 -34 68 -11 204 37 215 79 258 235 247 30 -3 56 -6 58 -7z"/>
<path d="M1786 1981 c-3 -4 10 -168 30 -362 38 -376 44 -404 97 -443 39 -29
161 -35 222 -11 80 30 107 74 278 451 86 192 157 355 157 362 0 10 -28 12
-122 10 l-122 -3 -116 -293 c-118 -298 -133 -332 -149 -332 -17 0 -20 29 -31
310 -6 151 -13 285 -16 298 -4 21 -8 22 -114 22 -60 0 -111 -4 -114 -9z"/>
</g>
</svg>
